<svg width="25136" height="6315" viewBox="0 0 25136 6315" fill="none" xmlns="http://www.w3.org/2000/svg">
<path d="M4600 1428V4428H4100C3700 4428 3600 4428 3600 3128V1628C3600 1528 3524.32 1428 3400 1428H4600Z" fill="url(#paint0_linear_503_14)"/>
<path d="M3050.87 5440.43C3050.85 5440.19 3050.88 5440.2 3051.01 5441.2C3050.94 5441.03 3050.88 5440.64 3050.87 5440.43Z" fill="url(#paint1_linear_503_14)"/>
<path d="M6271.5 4137C6271.5 4140.33 6269 4179.5 6264 4254.5H5279C5289.1 4289.85 5303.87 4321.16 5323.32 4348.43C5342.39 4375.17 5365.95 4398.02 5394 4417C5417.6 4431.83 5443.51 4443.66 5471.74 4452.5C5513.3 4465.5 5559.89 4472 5611.5 4472C5676.5 4472 5732.33 4462.83 5779 4444.5C5827.33 4426.17 5875.67 4396.17 5924 4354.5L6174 4614.5C6042.33 4761.17 5849.83 4834.5 5596.5 4834.5C5476.62 4834.5 5367.73 4817.3 5269.83 4782.91C5238.42 4771.88 5208.15 4759.07 5179 4744.5C5106.86 4708.43 5044.36 4663.93 4991.5 4611C4956.42 4575.88 4925.59 4537.05 4899 4494.5C4834 4387.83 4801.5 4267 4801.5 4132C4801.5 3998.67 4833.17 3879.5 4896.5 3774.5C4961.5 3667.83 5050.67 3584.5 5164 3524.5C5277.33 3464.5 5404.83 3434.5 5546.5 3434.5C5558.01 3434.5 5569.42 3434.71 5580.75 3435.12C5650.07 3437.64 5715.99 3447.87 5778.51 3465.82C5825.6 3479.33 5870.77 3497.23 5914 3519.5C6024 3574.5 6110.67 3655.33 6174 3762C6239 3867 6271.5 3992 6271.5 4137ZM5549 3772C5538.49 3772 5528.21 3772.43 5518.18 3773.28C5458.22 3778.4 5406.83 3798.81 5364 3834.5C5315.67 3876.17 5284.83 3932.83 5271.5 4004.5H5826.5C5813.17 3932.83 5781.5 3876.17 5731.5 3834.5C5725.45 3829.28 5719.2 3824.39 5712.75 3819.82C5667.73 3787.94 5613.15 3772 5549 3772Z" fill="url(#paint2_linear_503_14)"/>
<path d="M7915.5 3457V4812H7463V4667C7413 4722 7353 4763.67 7283 4792C7213 4820.33 7138.84 4834.5 7060.5 4834.5C6885.5 4834.5 6745.5 4782.83 6640.5 4679.5C6537.17 4576.17 6485.5 4421.17 6485.5 4214.5V3457H6960.5V4137C6960.5 4238.67 6979.67 4312.83 7018 4359.5C7056.34 4406.17 7112.17 4429.5 7185.5 4429.5C7260.5 4429.5 7321.34 4403.67 7368 4352C7416.34 4298.67 7440.5 4217.83 7440.5 4109.5V3457H7915.5Z" fill="url(#paint3_linear_503_14)"/>
<path d="M8673.96 3619.5C8722.29 3557.83 8784.79 3512 8861.46 3482C8939.79 3450.33 9028.96 3434.5 9128.96 3434.5V3862C9085.63 3857 9049.79 3854.5 9021.46 3854.5C8919.79 3854.5 8839.79 3882 8781.46 3937C8724.79 3992 8696.46 4076.17 8696.46 4189.5V4812H8221.46V3457H8673.96V3619.5Z" fill="url(#paint4_linear_503_14)"/>
<path d="M10407.7 4472H9667.67L9530.17 4812H9025.17L9797.67 3062H10285.2L11060.2 4812H10545.2L10407.7 4472ZM10262.7 4107L10037.7 3547L9812.67 4107H10262.7Z" fill="url(#paint5_linear_503_14)"/>
<path d="M11178 2957H11653V4812H11178V2957Z" fill="url(#paint6_linear_503_14)"/>
<path d="M12814.2 3434.5C12937.5 3434.5 13049.2 3462.83 13149.2 3519.5C13250.9 3576.17 13330.9 3657.83 13389.2 3764.5C13449.2 3869.5 13479.2 3992 13479.2 4132C13479.2 4272 13449.2 4395.33 13389.2 4502C13330.9 4608.67 13250.9 4691.17 13149.2 4749.5C13049.2 4806.17 12937.5 4834.5 12814.2 4834.5C12635.9 4834.5 12502.5 4782 12414.2 4677V4812H11961.7V2957H12436.7V3574.5C12528.4 3481.17 12654.2 3434.5 12814.2 3434.5ZM12714.2 4457C12797.5 4457 12865.9 4428.67 12919.2 4372C12972.5 4313.67 12999.2 4233.67 12999.2 4132C12999.2 4032 12972.5 3953.67 12919.2 3897C12865.9 3840.33 12797.5 3812 12714.2 3812C12630.9 3812 12562.5 3840.33 12509.2 3897C12455.9 3953.67 12429.2 4032 12429.2 4132C12429.2 4233.67 12455.9 4313.67 12509.2 4372C12562.5 4428.67 12630.9 4457 12714.2 4457Z" fill="url(#paint7_linear_503_14)"/>
<path d="M15085 4137C15085 4140.33 15082.5 4179.5 15077.5 4254.5H14092.5C14112.5 4324.5 14150.8 4378.67 14207.5 4417C14265.8 4453.67 14338.3 4472 14425 4472C14490 4472 14545.8 4462.83 14592.5 4444.5C14640.8 4426.17 14689.1 4396.17 14737.5 4354.5L14987.5 4614.5C14855.8 4761.17 14663.3 4834.5 14410 4834.5C14251.6 4834.5 14112.5 4804.5 13992.5 4744.5C13872.5 4684.5 13779.1 4601.17 13712.5 4494.5C13647.5 4387.83 13615 4267 13615 4132C13615 3998.67 13646.6 3879.5 13710 3774.5C13775 3667.83 13864.1 3584.5 13977.5 3524.5C14090.8 3464.5 14218.3 3434.5 14360 3434.5C14495 3434.5 14617.5 3462.83 14727.5 3519.5C14837.5 3574.5 14924.1 3655.33 14987.5 3762C15052.5 3867 15085 3992 15085 4137ZM14362.5 3772C14289.1 3772 14227.5 3792.83 14177.5 3834.5C14129.1 3876.17 14098.3 3932.83 14085 4004.5H14640C14626.6 3932.83 14595 3876.17 14545 3834.5C14496.6 3792.83 14435.8 3772 14362.5 3772Z" fill="url(#paint8_linear_503_14)"/>
<path d="M15756.5 3619.5C15804.8 3557.83 15867.3 3512 15944 3482C16022.3 3450.33 16111.5 3434.5 16211.5 3434.5V3862C16168.1 3857 16132.3 3854.5 16104 3854.5C16002.3 3854.5 15922.3 3882 15864 3937C15807.3 3992 15779 4076.17 15779 4189.5V4812H15304V3457H15756.5V3619.5Z" fill="url(#paint9_linear_503_14)"/>
<path d="M17384 4757C17344 4782 17294.8 4801.17 17236.5 4814.5C17179.8 4827.83 17119 4834.5 17054 4834.5C16877.3 4834.5 16741.5 4791.17 16646.5 4704.5C16551.5 4617.83 16504 4488.67 16504 4317V3862H16306.5V3507H16504V3154.5H16979V3507H17289V3862H16979V4312C16979 4360.33 16991.5 4398.67 17016.5 4427C17043.2 4453.67 17078.2 4467 17121.5 4467C17176.5 4467 17224.8 4452.83 17266.5 4424.5L17384 4757Z" fill="url(#paint10_linear_503_14)"/>
<path d="M18144.7 3434.5C18369.7 3434.5 18541.3 3486.17 18659.7 3589.5C18778 3691.17 18837.2 3847.83 18837.2 4059.5V4812H18394.7V4637C18326.3 4768.67 18193 4834.5 17994.7 4834.5C17889.7 4834.5 17798.8 4816.17 17722.2 4779.5C17645.5 4742.83 17587.2 4693.67 17547.2 4632C17508.8 4568.67 17489.7 4497 17489.7 4417C17489.7 4288.67 17538.8 4189.5 17637.2 4119.5C17735.5 4047.83 17887.2 4012 18092.2 4012H18362.2C18353.8 3868.67 18258 3797 18074.7 3797C18009.7 3797 17943.8 3807.83 17877.2 3829.5C17810.5 3849.5 17753.8 3877.83 17707.2 3914.5L17547.2 3592C17622.2 3542 17713 3503.67 17819.7 3477C17928 3448.67 18036.3 3434.5 18144.7 3434.5ZM18127.2 4534.5C18182.2 4534.5 18230.5 4521.17 18272.2 4494.5C18313.8 4467.83 18343.8 4428.67 18362.2 4377V4259.5H18157.2C18018.8 4259.5 17949.7 4305.33 17949.7 4397C17949.7 4438.67 17965.5 4472 17997.2 4497C18028.8 4522 18072.2 4534.5 18127.2 4534.5Z" fill="url(#paint11_linear_503_14)"/>
<path d="M19532 3454.5H18994.5V3062H20562V3454.5H20027V4812H19532V3454.5Z" fill="url(#paint12_linear_503_14)"/>
<path d="M21972.2 4137C21972.2 4140.33 21969.7 4179.5 21964.7 4254.5H20979.7C20999.7 4324.5 21038 4378.67 21094.7 4417C21153 4453.67 21225.5 4472 21312.2 4472C21377.2 4472 21433 4462.83 21479.7 4444.5C21528 4426.17 21576.3 4396.17 21624.7 4354.5L21874.7 4614.5C21743 4761.17 21550.5 4834.5 21297.2 4834.5C21138.8 4834.5 20999.7 4804.5 20879.7 4744.5C20759.7 4684.5 20666.3 4601.17 20599.7 4494.5C20534.7 4387.83 20502.2 4267 20502.2 4132C20502.2 3998.67 20533.8 3879.5 20597.2 3774.5C20662.2 3667.83 20751.3 3584.5 20864.7 3524.5C20978 3464.5 21105.5 3434.5 21247.2 3434.5C21382.2 3434.5 21504.7 3462.83 21614.7 3519.5C21724.7 3574.5 21811.3 3655.33 21874.7 3762C21939.7 3867 21972.2 3992 21972.2 4137ZM21249.7 3772C21176.3 3772 21114.7 3792.83 21064.7 3834.5C21016.3 3876.17 20985.5 3932.83 20972.2 4004.5H21527.2C21513.8 3932.83 21482.2 3876.17 21432.2 3834.5C21383.8 3792.83 21323 3772 21249.7 3772Z" fill="url(#paint13_linear_503_14)"/>
<path d="M22883.7 4834.5C22733.7 4834.5 22599.5 4804.5 22481.2 4744.5C22362.9 4684.5 22270.4 4601.17 22203.7 4494.5C22138.7 4387.83 22106.2 4267 22106.2 4132C22106.2 3997 22138.7 3877 22203.7 3772C22270.4 3665.33 22362.9 3582.83 22481.2 3524.5C22599.5 3464.5 22733.7 3434.5 22883.7 3434.5C23037 3434.5 23169.5 3467.83 23281.2 3534.5C23392.9 3599.5 23472 3690.33 23518.7 3807L23151.2 3994.5C23089.5 3872.83 22999.5 3812 22881.2 3812C22796.2 3812 22725.4 3840.33 22668.7 3897C22613.7 3953.67 22586.2 4032 22586.2 4132C22586.2 4233.67 22613.7 4313.67 22668.7 4372C22725.4 4428.67 22796.2 4457 22881.2 4457C22999.5 4457 23089.5 4396.17 23151.2 4274.5L23518.7 4462C23472 4578.67 23392.9 4670.33 23281.2 4737C23169.5 4802 23037 4834.5 22883.7 4834.5Z" fill="url(#paint14_linear_503_14)"/>
<path d="M24575.2 3434.5C24743.5 3434.5 24878.5 3484.5 24980.2 3584.5C25083.5 3684.5 25135.2 3835.33 25135.2 4037V4812H24660.2V4114.5C24660.2 3929.5 24586 3837 24437.7 3837C24356 3837 24290.2 3863.67 24240.2 3917C24191.8 3970.33 24167.7 4050.33 24167.7 4157V4812H23692.7V2957H24167.7V3582C24219.3 3533.67 24280.2 3497 24350.2 3472C24420.2 3447 24495.2 3434.5 24575.2 3434.5Z" fill="url(#paint15_linear_503_14)"/>
<path d="M1700 1828H1200V4828H2400C2300 4828 2200 4728 2200 4628V3128C2200 2088 2200 1828 1700 1828Z" fill="url(#paint16_linear_503_14)"/>
<path fill-rule="evenodd" clip-rule="evenodd" d="M0 3128C0 4729.63 1298.37 6028 2900 6028C3022.26 6028 3141.94 6018.99 3260.22 6004.3C3349.76 5990.02 3438.76 5968.24 3561.6 5937.6C3606.86 6047.16 3710.43 6119.4 3836.57 6123.23C3888.54 6124.81 3919.59 6121.72 3963.32 6100.44C4000.32 6185.21 4042.86 6251.63 4091.64 6314.6C4599.21 6099.94 4880.76 5940.01 5236.82 5616.19C5258.52 5624.08 5281.83 5628.7 5306.17 5629.44C5429.03 5633.18 5531.66 5536.59 5535.4 5413.71C5539.14 5290.82 5442.57 5188.17 5319.72 5184.44C5196.86 5180.7 5094.23 5277.28 5090.49 5400.17C5089.3 5439.42 5090.49 5468.6 5107.35 5501.16C4941.5 5652.61 4840.37 5717.26 4649.5 5839C4595.5 5758.01 4587.49 5746.97 4553.29 5699.83L4553.26 5699.8C4545.03 5688.45 4535.28 5675.01 4523 5658C4546.83 5635.99 4570.11 5621.36 4590.46 5608.57C4593.31 5606.79 4596.1 5605.03 4598.82 5603.3C4630.15 5621.9 4668.1 5628.75 4707.09 5629.94C4829.95 5633.68 4932.57 5537.09 4936.31 5414.2C4940.05 5291.32 4843.49 5188.67 4720.63 5184.93C4597.77 5181.19 4495.14 5277.78 4491.4 5400.66C4491.23 5406.41 4490.92 5411.74 4490.63 5416.81L4490.63 5416.82V5416.83C4489.59 5434.77 4488.75 5449.4 4494.64 5467.75C4474.31 5483.4 4454.61 5498.21 4435.45 5512.6C4383.32 5551.78 4335.2 5587.94 4289.5 5629.94L4305.22 5656.65C4372.62 5771.2 4399.02 5816.07 4480.11 5944.98C4470.08 5951 4460.72 5956.63 4451.95 5961.91C4341.28 6028.49 4323.05 6039.47 4197.5 6089.5L4178.66 6093.66C4145.11 6055.26 4131.29 6028.35 4113.43 5982.38C4144.98 5935.47 4154.52 5882.95 4156.36 5822.26C4161.58 5650.82 4026.86 5507.61 3855.46 5502.39C3686.45 5497.25 3539.08 5585.21 3530.16 5753.23C3414.37 5780.78 3321.86 5799.14 3226.29 5810.75C3119.2 5823.67 3010.57 5828 2900 5828C2891.49 5828 2882.99 5827.96 2874.5 5827.88L2859.5 5614.5C2889.24 5612.58 2915.12 5611.64 2938.93 5610.77C2996.34 5608.69 3041.65 5607.04 3099.68 5593.08C3139.03 5642.05 3199.43 5664.31 3267.14 5666.37C3390 5670.11 3492.63 5573.52 3496.37 5450.64C3500.11 5327.75 3403.54 5225.1 3280.68 5221.36C3157.82 5217.62 3055.2 5314.21 3051.46 5437.1C3051.34 5441.02 3051.14 5441.5 3051.01 5441.2C3051.09 5441.8 3051.2 5442.77 3051.35 5444.27C2959.27 5463.66 2878 5463.37 2785.57 5463.05H2785.51C2747.42 5462.91 2707.43 5462.77 2664 5464L2680 5819.17C2553.16 5808.94 2428.79 5789.94 2307.5 5762.79C2233.9 5747.65 2136.83 5719.11 2097.5 5706.74C998.21 5365.01 200 4339.72 200 3128C200 2572.96 367.481 2057.03 654.665 1628H1700C2200 1628 2400 1828 2400 3128C2400 4168 2900 4828 4100 4828H5028C4915 4772.5 4817.32 4676.32 4791.49 4628H4100C3600 4628 3400 4428 3400 3128C3400 2088 2900 1428 1700 1428H550.273C204.098 1905.65 0 2492.99 0 3128ZM5800 3128C5800 3180.4 5798.61 3232.47 5795.87 3284.18C5743.36 3270.32 5653.36 3261.52 5597 3260.5C5598.9 3218.91 5600 3170.06 5600 3128C5600 1636.83 4391.17 428 2900 428C2692.12 428 2730 459.5 2809.11 485.402C2835.75 494.123 2911.37 513.88 3000.41 528.091C3152.22 552.319 3332.81 581.141 3313.59 638.332C3300.73 676.597 3196.85 669.844 3078.32 662.138C3061.68 661.057 3044.75 659.956 3027.75 658.959C2986.36 656.532 2943.22 651.918 2900.21 647.318L2900.21 647.318L2900.21 647.318C2777.93 634.24 2656.68 621.272 2579.68 658.959C2538.8 678.96 2519.52 700.279 2492.18 730.497C2490.15 732.745 2488.14 734.939 2486.13 737.126C2473.78 750.579 2461.69 763.74 2447 787.452C2384.72 887.988 2388.89 962.443 2398.42 1026.15C2407.94 1089.87 2399.43 1205.02 2343.74 1211.57C2304.68 1216.16 2305.44 1183.71 2306.47 1139.27V1139.27L2306.47 1139.26C2306.65 1131.75 2306.83 1123.9 2306.83 1115.83C2306.83 1036.92 2231.57 884.374 2109.23 873.225C2022.12 865.285 2009.13 887.997 1982.58 934.43C1971.38 954.026 1957.76 977.847 1935.14 1005.37C1858.9 1098.12 1693.01 1194.65 1662.94 1177.05C1638.76 1162.9 1676.59 1114.63 1720.76 1058.29C1778.94 984.083 1848.1 895.863 1801.02 853.113C1753.5 809.965 1631.7 838.29 1550.54 860.146C1543.04 862.167 1535.13 864.295 1526.81 866.529C1517.7 868.971 1509.41 871.078 1500.99 873.219L1500.97 873.225L1500.95 873.228C1465.84 882.152 1428.45 891.655 1320.62 928.321C1252.69 951.417 1160.11 1010.14 1077.42 1062.58L1077.42 1062.58C978.75 1125.16 874.517 1148.79 862.68 1122.35C840.923 1073.75 1346.64 671.258 1572.03 604.411C1646.16 582.424 1629.58 552.575 1526.81 545.885C1434.6 539.883 1330.54 553.322 1252.51 563.399C1178.84 572.912 1109.89 542.478 1114.52 526.812C1124.05 494.553 1495.7 405.129 1728.21 394.339C1734.03 394.069 1739.95 393.806 1745.96 393.54L1745.99 393.539C1884.74 387.386 2069.49 379.194 2123.56 229.145C2123.21 226.867 2124.32 223.141 2125.85 218.043L2125.85 218.041C2130.91 201.179 2140.47 169.312 2116.2 125.211C2115.85 124.576 2115.5 123.939 2115.15 123.299L2114.54 122.196L2114.48 122.094C2090.41 78.3923 2061.16 25.2707 2084.94 4.5053C2104.34 -12.4375 2144.35 21.5792 2182.24 53.7897C2197.86 67.0643 2213.11 80.0322 2226.42 88.9998C2229.94 91.3757 2233.57 93.8864 2237.37 96.5136C2302.75 141.738 2411.96 206.549 2900 228C4501.63 228 5800 1526.37 5800 3128ZM2166.35 731.946C2252.84 731.946 2322.95 661.873 2322.95 575.435C2322.95 488.996 2252.84 418.924 2166.35 418.924C2079.86 418.924 2009.75 488.996 2009.75 575.435C2009.75 661.873 2079.86 731.946 2166.35 731.946ZM3275.87 5522.02C3318.36 5523.31 3353.85 5489.91 3355.14 5447.42C3356.43 5404.92 3323.04 5369.42 3280.56 5368.13C3238.07 5366.84 3202.58 5400.24 3201.29 5442.73C3200 5485.23 3233.39 5520.72 3275.87 5522.02ZM4711.54 5488.69C4754.02 5489.98 4789.51 5456.58 4790.8 5414.09C4792.1 5371.6 4758.71 5336.1 4716.22 5334.81C4673.74 5333.51 4638.25 5366.91 4636.95 5409.41C4635.66 5451.9 4669.05 5487.4 4711.54 5488.69ZM5314.43 5485.96C5356.91 5487.25 5392.4 5453.85 5393.69 5411.35C5394.99 5368.86 5361.59 5333.36 5319.11 5332.07C5276.62 5330.78 5241.14 5364.18 5239.84 5406.67C5238.55 5449.17 5271.94 5484.66 5314.43 5485.96ZM3848.75 5956.79C3926.79 5959.17 3991.98 5897.82 3994.35 5819.76C3996.73 5741.71 3935.39 5676.51 3857.36 5674.13C3779.32 5671.76 3714.13 5733.11 3711.76 5811.16C3709.38 5889.22 3770.72 5954.42 3848.75 5956.79Z" fill="url(#paint17_linear_503_14)"/>
<path d="M6746 5146L6585 5951H6535.55L6129.6 5242.6L5988.15 5951H5929.5L6090.5 5146H6138.8L6545.9 5854.4L6687.35 5146H6746Z" fill="white"/>
<path d="M6896.02 5663.5C6894.49 5680.37 6893.72 5693.02 6893.72 5701.45C6893.72 5766.62 6912.5 5816.83 6950.07 5852.1C6987.64 5886.6 7042.84 5903.85 7115.67 5903.85C7157.84 5903.85 7196.55 5896.95 7231.82 5883.15C7267.85 5868.58 7297.75 5848.65 7321.52 5823.35L7347.97 5863.6C7321.14 5892.73 7286.64 5915.35 7244.47 5931.45C7203.07 5947.55 7158.6 5955.6 7111.07 5955.6C7025.97 5955.6 6958.89 5933.37 6909.82 5888.9C6861.52 5844.43 6837.37 5782.72 6837.37 5703.75C6837.37 5636.28 6851.55 5575.33 6879.92 5520.9C6908.29 5466.47 6947.39 5423.92 6997.22 5393.25C7047.05 5361.82 7103.02 5346.1 7165.12 5346.1C7243.32 5346.1 7305.42 5368.33 7351.42 5412.8C7397.42 5457.27 7420.42 5518.6 7420.42 5596.8C7420.42 5615.2 7418.12 5637.43 7413.52 5663.5H6896.02ZM7163.97 5395.55C7098.8 5395.55 7042.45 5415.87 6994.92 5456.5C6948.15 5497.13 6917.49 5551.18 6902.92 5618.65H7365.22C7365.99 5611.75 7366.37 5601.78 7366.37 5588.75C7366.37 5528.18 7347.97 5481.03 7311.17 5447.3C7274.37 5412.8 7225.3 5395.55 7163.97 5395.55Z" fill="white"/>
<path d="M8181.33 5350.7L8061.73 5951H8005.38L8028.38 5837.15C7972.41 5916.12 7890.38 5955.6 7782.28 5955.6C7714.81 5955.6 7662.68 5938.73 7625.88 5905C7589.84 5870.5 7571.83 5823.35 7571.83 5763.55C7571.83 5742.85 7574.13 5721 7578.73 5698L7647.73 5350.7H7705.23L7636.23 5698C7632.39 5714.87 7630.48 5734.03 7630.48 5755.5C7630.48 5803.03 7644.28 5839.83 7671.88 5865.9C7700.24 5891.2 7742.03 5903.85 7797.23 5903.85C7866.23 5903.85 7923.34 5884.68 7968.58 5846.35C8013.81 5807.25 8043.71 5750.9 8058.28 5677.3L8123.83 5350.7H8181.33Z" fill="white"/>
<path d="M8453.81 5477.2C8480.65 5433.5 8514.76 5400.92 8556.16 5379.45C8598.33 5357.22 8649.31 5346.1 8709.11 5346.1L8698.76 5402.45L8680.36 5401.3C8612.13 5401.3 8556.16 5421.62 8512.46 5462.25C8468.76 5502.88 8438.86 5563.07 8422.76 5642.8L8360.66 5951H8303.16L8422.76 5350.7H8479.11L8453.81 5477.2Z" fill="white"/>
<path d="M8996.48 5955.6C8915.21 5955.6 8850.43 5932.98 8802.13 5887.75C8754.59 5842.52 8730.83 5781.95 8730.83 5706.05C8730.83 5637.82 8745.39 5576.48 8774.53 5522.05C8804.43 5467.62 8845.44 5424.68 8897.58 5393.25C8949.71 5361.82 9008.74 5346.1 9074.68 5346.1C9155.94 5346.1 9220.34 5368.72 9267.88 5413.95C9316.18 5458.42 9340.33 5518.98 9340.33 5595.65C9340.33 5663.88 9325.38 5725.6 9295.48 5780.8C9266.35 5835.23 9225.71 5878.17 9173.58 5909.6C9121.44 5940.27 9062.41 5955.6 8996.48 5955.6ZM9001.08 5903.85C9054.74 5903.85 9102.66 5890.82 9144.83 5864.75C9187.76 5838.68 9221.49 5802.65 9246.03 5756.65C9270.56 5709.88 9282.83 5657.37 9282.83 5599.1C9282.83 5535.47 9264.05 5486.02 9226.48 5450.75C9189.68 5415.48 9137.54 5397.85 9070.08 5397.85C9016.41 5397.85 8968.11 5411.27 8925.18 5438.1C8883.01 5464.17 8849.66 5500.58 8825.13 5547.35C8800.59 5593.35 8788.33 5645.1 8788.33 5702.6C8788.33 5766.23 8806.73 5815.68 8843.53 5850.95C8881.09 5886.22 8933.61 5903.85 9001.08 5903.85Z" fill="white"/>
<path d="M9557.81 5777.35C9554.75 5791.92 9553.21 5806.1 9553.21 5819.9C9553.21 5877.4 9583.88 5906.15 9645.21 5906.15C9682.01 5906.15 9714.6 5895.03 9742.96 5872.8L9760.21 5915.35C9727.25 5942.18 9684.31 5955.6 9631.41 5955.6C9588.48 5955.6 9554.75 5944.48 9530.21 5922.25C9506.45 5899.25 9494.56 5867.82 9494.56 5827.95C9494.56 5811.85 9496.1 5796.52 9499.16 5781.95L9576.21 5400.15H9464.66L9473.86 5350.7H9585.41L9611.86 5219.6H9669.36L9642.91 5350.7H9833.81L9824.61 5400.15H9633.71L9557.81 5777.35Z" fill="white"/>
<path d="M9939.48 5663.5C9937.95 5680.37 9937.18 5693.02 9937.18 5701.45C9937.18 5766.62 9955.96 5816.83 9993.53 5852.1C10031.1 5886.6 10086.3 5903.85 10159.1 5903.85C10201.3 5903.85 10240 5896.95 10275.3 5883.15C10311.3 5868.58 10341.2 5848.65 10365 5823.35L10391.4 5863.6C10364.6 5892.73 10330.1 5915.35 10287.9 5931.45C10246.5 5947.55 10202.1 5955.6 10154.5 5955.6C10069.4 5955.6 10002.3 5933.37 9953.28 5888.9C9904.98 5844.43 9880.83 5782.72 9880.83 5703.75C9880.83 5636.28 9895.01 5575.33 9923.38 5520.9C9951.74 5466.47 9990.84 5423.92 10040.7 5393.25C10090.5 5361.82 10146.5 5346.1 10208.6 5346.1C10286.8 5346.1 10348.9 5368.33 10394.9 5412.8C10440.9 5457.27 10463.9 5518.6 10463.9 5596.8C10463.9 5615.2 10461.6 5637.43 10457 5663.5H9939.48ZM10207.4 5395.55C10142.3 5395.55 10085.9 5415.87 10038.4 5456.5C9991.61 5497.13 9960.94 5551.18 9946.38 5618.65H10408.7C10409.4 5611.75 10409.8 5601.78 10409.8 5588.75C10409.8 5528.18 10391.4 5481.03 10354.6 5447.3C10317.8 5412.8 10268.8 5395.55 10207.4 5395.55Z" fill="white"/>
<path d="M10838.4 5955.6C10755.6 5955.6 10689.6 5932.98 10640.6 5887.75C10592.3 5842.52 10568.1 5781.95 10568.1 5706.05C10568.1 5637.82 10582.7 5576.48 10611.8 5522.05C10641.7 5466.85 10682.7 5423.92 10734.9 5393.25C10787.8 5361.82 10847.2 5346.1 10913.1 5346.1C10966.8 5346.1 11012.8 5355.68 11051.1 5374.85C11089.5 5393.25 11119.4 5421.23 11140.8 5458.8L11093.7 5487.55C11057.6 5427.75 10996.3 5397.85 10909.7 5397.85C10855.2 5397.85 10806.6 5411.27 10763.6 5438.1C10720.7 5464.17 10687 5500.2 10662.4 5546.2C10637.9 5592.2 10625.6 5644.33 10625.6 5702.6C10625.6 5766.23 10644.4 5815.68 10682 5850.95C10719.5 5886.22 10773.2 5903.85 10843 5903.85C10882.8 5903.85 10920 5896.18 10954.5 5880.85C10989.8 5865.52 11018.9 5844.05 11041.9 5816.45L11082.2 5848.65C11056.1 5882.38 11021.2 5908.83 10977.5 5928C10934.6 5946.4 10888.2 5955.6 10838.4 5955.6Z" fill="white"/>
<path d="M11606.5 5346.1C11674.7 5346.1 11727.2 5363.35 11764 5397.85C11800.8 5431.58 11819.2 5478.35 11819.2 5538.15C11819.2 5558.85 11816.9 5580.7 11812.3 5603.7L11743.3 5951H11685.8L11754.8 5603.7C11758.6 5586.07 11760.6 5566.9 11760.6 5546.2C11760.6 5498.67 11746 5462.25 11716.9 5436.95C11688.5 5410.88 11646.7 5397.85 11591.5 5397.85C11522.5 5397.85 11465 5417.4 11419 5456.5C11373 5494.83 11342.7 5550.8 11328.2 5624.4L11262.6 5951H11205.1L11375.3 5097.7H11432.8L11360.4 5462.25C11417.1 5384.82 11499.1 5346.1 11606.5 5346.1Z" fill="white"/>
<path d="M12380.2 5346.1C12448.5 5346.1 12501 5363.35 12537.8 5397.85C12574.6 5431.58 12593 5478.35 12593 5538.15C12593 5558.85 12590.7 5580.7 12586.1 5603.7L12517.1 5951H12459.6L12528.6 5603.7C12532.4 5586.07 12534.3 5566.9 12534.3 5546.2C12534.3 5498.67 12519.8 5462.25 12490.6 5436.95C12462.3 5410.88 12420.5 5397.85 12365.3 5397.85C12296.3 5397.85 12238.8 5417.4 12192.8 5456.5C12146.8 5494.83 12116.5 5550.8 12101.9 5624.4L12036.4 5951H11978.9L12098.5 5350.7H12154.8L12131.8 5464.55C12160.2 5424.68 12195.5 5395.17 12237.6 5376C12280.6 5356.07 12328.1 5346.1 12380.2 5346.1Z" fill="white"/>
<path d="M13010.2 5955.6C12929 5955.6 12864.2 5932.98 12815.9 5887.75C12768.4 5842.52 12744.6 5781.95 12744.6 5706.05C12744.6 5637.82 12759.2 5576.48 12788.3 5522.05C12818.2 5467.62 12859.2 5424.68 12911.3 5393.25C12963.5 5361.82 13022.5 5346.1 13088.4 5346.1C13169.7 5346.1 13234.1 5368.72 13281.6 5413.95C13329.9 5458.42 13354.1 5518.98 13354.1 5595.65C13354.1 5663.88 13339.1 5725.6 13309.2 5780.8C13280.1 5835.23 13239.5 5878.17 13187.3 5909.6C13135.2 5940.27 13076.2 5955.6 13010.2 5955.6ZM13014.8 5903.85C13068.5 5903.85 13116.4 5890.82 13158.6 5864.75C13201.5 5838.68 13235.3 5802.65 13259.8 5756.65C13284.3 5709.88 13296.6 5657.37 13296.6 5599.1C13296.6 5535.47 13277.8 5486.02 13240.2 5450.75C13203.4 5415.48 13151.3 5397.85 13083.8 5397.85C13030.2 5397.85 12981.9 5411.27 12938.9 5438.1C12896.8 5464.17 12863.4 5500.58 12838.9 5547.35C12814.4 5593.35 12802.1 5645.1 12802.1 5702.6C12802.1 5766.23 12820.5 5815.68 12857.3 5850.95C12894.9 5886.22 12947.4 5903.85 13014.8 5903.85Z" fill="white"/>
<path d="M13637.1 5097.7H13694.6L13524.4 5951H13466.9L13637.1 5097.7Z" fill="white"/>
<path d="M14023.2 5955.6C13942 5955.6 13877.2 5932.98 13828.9 5887.75C13781.4 5842.52 13757.6 5781.95 13757.6 5706.05C13757.6 5637.82 13772.2 5576.48 13801.3 5522.05C13831.2 5467.62 13872.2 5424.68 13924.3 5393.25C13976.5 5361.82 14035.5 5346.1 14101.4 5346.1C14182.7 5346.1 14247.1 5368.72 14294.6 5413.95C14342.9 5458.42 14367.1 5518.98 14367.1 5595.65C14367.1 5663.88 14352.1 5725.6 14322.2 5780.8C14293.1 5835.23 14252.5 5878.17 14200.3 5909.6C14148.2 5940.27 14089.2 5955.6 14023.2 5955.6ZM14027.8 5903.85C14081.5 5903.85 14129.4 5890.82 14171.6 5864.75C14214.5 5838.68 14248.3 5802.65 14272.8 5756.65C14297.3 5709.88 14309.6 5657.37 14309.6 5599.1C14309.6 5535.47 14290.8 5486.02 14253.2 5450.75C14216.4 5415.48 14164.3 5397.85 14096.8 5397.85C14043.2 5397.85 13994.9 5411.27 13951.9 5438.1C13909.8 5464.17 13876.4 5500.58 13851.9 5547.35C13827.4 5593.35 13815.1 5645.1 13815.1 5702.6C13815.1 5766.23 13833.5 5815.68 13870.3 5850.95C13907.9 5886.22 13960.4 5903.85 14027.8 5903.85Z" fill="white"/>
<path d="M15142.3 5350.7L15035.4 5886.6C15015.4 5988.57 14977.9 6062.55 14922.7 6108.55C14867.5 6155.32 14791.2 6178.7 14693.8 6178.7C14638.6 6178.7 14588.8 6170.27 14544.3 6153.4C14499.9 6137.3 14463.1 6114.3 14433.9 6084.4L14470.7 6041.85C14495.3 6068.68 14527.1 6089.38 14566.2 6103.95C14605.3 6119.28 14649.4 6126.95 14698.4 6126.95C14778.2 6126.95 14840.6 6108.17 14885.9 6070.6C14931.1 6033.03 14961.4 5974.77 14976.7 5895.8L14995.1 5806.1C14965.2 5845.2 14928 5875.48 14883.6 5896.95C14839.1 5918.42 14789.7 5929.15 14735.2 5929.15C14654.7 5929.15 14590.7 5907.68 14543.2 5864.75C14496.4 5821.82 14473 5763.55 14473 5689.95C14473 5625.55 14487.6 5567.28 14516.7 5515.15C14545.9 5462.25 14586.5 5420.85 14638.6 5390.95C14690.8 5361.05 14749.4 5346.1 14814.6 5346.1C14877.4 5346.1 14930 5359.52 14972.1 5386.35C15014.3 5413.18 15042.7 5452.28 15057.2 5503.65L15087.1 5350.7H15142.3ZM14745.6 5877.4C14800 5877.4 14848.7 5865.13 14891.6 5840.6C14934.6 5815.3 14968.3 5780.8 14992.8 5737.1C15017.4 5692.63 15029.6 5642.8 15029.6 5587.6C15029.6 5527.8 15010.5 5481.42 14972.1 5448.45C14934.6 5414.72 14882 5397.85 14814.6 5397.85C14760.1 5397.85 14711.5 5410.5 14668.5 5435.8C14625.6 5460.33 14591.9 5494.83 14567.3 5539.3C14542.8 5583 14530.5 5632.45 14530.5 5687.65C14530.5 5747.45 14549.3 5794.22 14586.9 5827.95C14625.2 5860.92 14678.1 5877.4 14745.6 5877.4Z" fill="white"/>
<path d="M15383.4 5350.7H15440.9L15321.3 5951H15263.8L15383.4 5350.7ZM15447.8 5204.65C15435.5 5204.65 15425.2 5200.43 15416.8 5192C15408.3 5183.57 15404.1 5173.6 15404.1 5162.1C15404.1 5148.3 15408.7 5136.42 15417.9 5126.45C15427.9 5116.48 15440.1 5111.5 15454.7 5111.5C15467 5111.5 15477.3 5115.72 15485.8 5124.15C15495 5132.58 15499.6 5142.55 15499.6 5154.05C15499.6 5168.62 15494.6 5180.88 15484.6 5190.85C15474.6 5200.05 15462.4 5204.65 15447.8 5204.65Z" fill="white"/>
<path d="M15613.1 5663.5C15611.6 5680.37 15610.8 5693.02 15610.8 5701.45C15610.8 5766.62 15629.6 5816.83 15667.2 5852.1C15704.7 5886.6 15759.9 5903.85 15832.8 5903.85C15874.9 5903.85 15913.6 5896.95 15948.9 5883.15C15984.9 5868.58 16014.8 5848.65 16038.6 5823.35L16065.1 5863.6C16038.2 5892.73 16003.7 5915.35 15961.6 5931.45C15920.2 5947.55 15875.7 5955.6 15828.2 5955.6C15743.1 5955.6 15676 5933.37 15626.9 5888.9C15578.6 5844.43 15554.5 5782.72 15554.5 5703.75C15554.5 5636.28 15568.6 5575.33 15597 5520.9C15625.4 5466.47 15664.5 5423.92 15714.3 5393.25C15764.1 5361.82 15820.1 5346.1 15882.2 5346.1C15960.4 5346.1 16022.5 5368.33 16068.5 5412.8C16114.5 5457.27 16137.5 5518.6 16137.5 5596.8C16137.5 5615.2 16135.2 5637.43 16130.6 5663.5H15613.1ZM15881.1 5395.55C15815.9 5395.55 15759.5 5415.87 15712 5456.5C15665.2 5497.13 15634.6 5551.18 15620 5618.65H16082.3C16083.1 5611.75 16083.5 5601.78 16083.5 5588.75C16083.5 5528.18 16065.1 5481.03 16028.3 5447.3C15991.5 5412.8 15942.4 5395.55 15881.1 5395.55Z" fill="white"/>
<path d="M16415.4 5955.6C16368.6 5955.6 16323.8 5948.7 16280.9 5934.9C16238.7 5920.33 16205.7 5901.93 16182 5879.7L16213 5834.85C16235.2 5856.32 16264.8 5873.57 16301.6 5886.6C16339.1 5898.87 16378.6 5905 16420 5905C16482.1 5905 16530 5894.27 16563.8 5872.8C16598.3 5850.57 16615.5 5819.9 16615.5 5780.8C16615.5 5758.57 16608.6 5740.93 16594.8 5727.9C16581 5714.87 16564.1 5705.28 16544.2 5699.15C16524.3 5692.25 16496.7 5684.97 16461.4 5677.3C16420 5668.87 16386.3 5660.05 16360.2 5650.85C16334.9 5641.65 16313.4 5627.47 16295.8 5608.3C16278.2 5588.37 16269.4 5561.53 16269.4 5527.8C16269.4 5472.6 16292 5428.52 16337.2 5395.55C16383.2 5362.58 16444.2 5346.1 16520.1 5346.1C16558.4 5346.1 16595.6 5351.47 16631.6 5362.2C16667.6 5372.17 16696.4 5386.35 16717.9 5404.75L16691.4 5449.6C16669.2 5431.97 16642.3 5418.93 16610.9 5410.5C16580.2 5401.3 16548.4 5396.7 16515.5 5396.7C16457.2 5396.7 16410.8 5408.2 16376.3 5431.2C16342.6 5454.2 16325.7 5484.48 16325.7 5522.05C16325.7 5545.05 16332.6 5563.45 16346.4 5577.25C16360.2 5590.28 16377.5 5600.25 16398.2 5607.15C16419.6 5614.05 16448 5621.33 16483.3 5629C16524.7 5637.43 16557.6 5646.25 16582.2 5655.45C16607.5 5663.88 16628.9 5677.68 16646.6 5696.85C16664.2 5716.02 16673 5742.08 16673 5775.05C16673 5831.02 16649.6 5875.1 16602.9 5907.3C16556.1 5939.5 16493.6 5955.6 16415.4 5955.6Z" fill="white"/>
<path d="M17276 5146H17334.7L17184 5898.1H17647.5L17636 5951H17115L17276 5146Z" fill="white"/>
<path d="M17887.8 5350.7H17945.3L17825.7 5951H17768.2L17887.8 5350.7ZM17952.2 5204.65C17939.9 5204.65 17929.6 5200.43 17921.2 5192C17912.7 5183.57 17908.5 5173.6 17908.5 5162.1C17908.5 5148.3 17913.1 5136.42 17922.3 5126.45C17932.3 5116.48 17944.5 5111.5 17959.1 5111.5C17971.4 5111.5 17981.7 5115.72 17990.2 5124.15C17999.4 5132.58 18004 5142.55 18004 5154.05C18004 5168.62 17999 5180.88 17989 5190.85C17979 5200.05 17966.8 5204.65 17952.2 5204.65Z" fill="white"/>
<path d="M18922.5 5346.1C18990 5346.1 19041.7 5362.97 19077.8 5396.7C19113.8 5429.67 19131.8 5476.05 19131.8 5535.85C19131.8 5556.55 19129.5 5579.17 19124.9 5603.7L19054.8 5951H18997.3L19067.4 5603.7C19071.2 5586.07 19073.2 5566.52 19073.2 5545.05C19073.2 5498.28 19059.4 5462.25 19031.8 5436.95C19004.2 5410.88 18963.9 5397.85 18911 5397.85C18845.1 5397.85 18789.9 5416.25 18745.4 5453.05C18701.7 5489.08 18673 5541.6 18659.2 5610.6L18590.2 5951H18532.7L18602.8 5603.7C18606.6 5586.07 18608.6 5566.52 18608.6 5545.05C18608.6 5498.28 18594.8 5462.25 18567.2 5436.95C18539.6 5410.88 18499.3 5397.85 18446.4 5397.85C18379.7 5397.85 18324.1 5417.4 18279.7 5456.5C18235.2 5494.83 18205.7 5550.8 18191.1 5624.4L18125.6 5951H18068.1L18187.7 5350.7H18244L18221 5463.4C18249.4 5423.53 18283.9 5394.02 18324.5 5374.85C18365.1 5355.68 18410.8 5346.1 18461.4 5346.1C18516.6 5346.1 18561 5357.98 18594.8 5381.75C18628.5 5404.75 18650.7 5437.72 18661.5 5480.65C18691.4 5436.18 18728.5 5402.83 18773 5380.6C18817.5 5357.6 18867.3 5346.1 18922.5 5346.1Z" fill="white"/>
<path d="M19411.8 5350.7H19469.3L19349.7 5951H19292.2L19411.8 5350.7ZM19476.2 5204.65C19463.9 5204.65 19453.6 5200.43 19445.1 5192C19436.7 5183.57 19432.5 5173.6 19432.5 5162.1C19432.5 5148.3 19437.1 5136.42 19446.3 5126.45C19456.2 5116.48 19468.5 5111.5 19483.1 5111.5C19495.3 5111.5 19505.7 5115.72 19514.1 5124.15C19523.3 5132.58 19527.9 5142.55 19527.9 5154.05C19527.9 5168.62 19522.9 5180.88 19513 5190.85C19503 5200.05 19490.7 5204.65 19476.2 5204.65Z" fill="white"/>
<path d="M19696.7 5777.35C19693.6 5791.92 19692.1 5806.1 19692.1 5819.9C19692.1 5877.4 19722.7 5906.15 19784.1 5906.15C19820.9 5906.15 19853.5 5895.03 19881.8 5872.8L19899.1 5915.35C19866.1 5942.18 19823.2 5955.6 19770.3 5955.6C19727.3 5955.6 19693.6 5944.48 19669.1 5922.25C19645.3 5899.25 19633.4 5867.82 19633.4 5827.95C19633.4 5811.85 19635 5796.52 19638 5781.95L19715.1 5400.15H19603.5L19612.7 5350.7H19724.3L19750.7 5219.6H19808.2L19781.8 5350.7H19972.7L19963.5 5400.15H19772.6L19696.7 5777.35Z" fill="white"/>
<path d="M20078.3 5663.5C20076.8 5680.37 20076 5693.02 20076 5701.45C20076 5766.62 20094.8 5816.83 20132.4 5852.1C20170 5886.6 20225.2 5903.85 20298 5903.85C20340.2 5903.85 20378.9 5896.95 20414.1 5883.15C20450.2 5868.58 20480.1 5848.65 20503.8 5823.35L20530.3 5863.6C20503.5 5892.73 20469 5915.35 20426.8 5931.45C20385.4 5947.55 20340.9 5955.6 20293.4 5955.6C20208.3 5955.6 20141.2 5933.37 20092.1 5888.9C20043.8 5844.43 20019.7 5782.72 20019.7 5703.75C20019.7 5636.28 20033.9 5575.33 20062.2 5520.9C20090.6 5466.47 20129.7 5423.92 20179.5 5393.25C20229.4 5361.82 20285.3 5346.1 20347.4 5346.1C20425.6 5346.1 20487.7 5368.33 20533.7 5412.8C20579.7 5457.27 20602.7 5518.6 20602.7 5596.8C20602.7 5615.2 20600.4 5637.43 20595.8 5663.5H20078.3ZM20346.3 5395.55C20281.1 5395.55 20224.8 5415.87 20177.2 5456.5C20130.5 5497.13 20099.8 5551.18 20085.2 5618.65H20547.5C20548.3 5611.75 20548.7 5601.78 20548.7 5588.75C20548.7 5528.18 20530.3 5481.03 20493.5 5447.3C20456.7 5412.8 20407.6 5395.55 20346.3 5395.55Z" fill="white"/>
<path d="M21421.2 5097.7L21250.9 5951H21195.8L21218.8 5833.7C21189.6 5872.03 21153.2 5901.93 21109.5 5923.4C21066.6 5944.87 21018.7 5955.6 20965.8 5955.6C20887.6 5955.6 20824.7 5933.37 20777.2 5888.9C20730.4 5843.67 20707 5782.72 20707 5706.05C20707 5637.82 20721.6 5576.48 20750.7 5522.05C20779.8 5466.85 20820.1 5423.92 20871.4 5393.25C20923.6 5361.82 20981.9 5346.1 21046.2 5346.1C21108.4 5346.1 21159.7 5359.52 21200.3 5386.35C21241 5413.18 21268.6 5451.52 21283.2 5501.35L21363.7 5097.7H21421.2ZM20977.2 5903.85C21030.9 5903.85 21078.8 5890.82 21121 5864.75C21163.9 5838.68 21197.7 5802.65 21222.2 5756.65C21246.7 5709.88 21259 5657.37 21259 5599.1C21259 5535.47 21240.2 5486.02 21202.7 5450.75C21165.9 5415.48 21113.7 5397.85 21046.2 5397.85C20992.6 5397.85 20944.3 5411.27 20901.3 5438.1C20859.2 5464.17 20825.8 5500.58 20801.3 5547.35C20776.8 5593.35 20764.5 5645.1 20764.5 5702.6C20764.5 5766.23 20782.9 5815.68 20819.7 5850.95C20857.3 5886.22 20909.8 5903.85 20977.2 5903.85Z" fill="white"/>
<defs>
<linearGradient id="paint0_linear_503_14" x1="0" y1="0" x2="25135" y2="6315" gradientUnits="userSpaceOnUse">
<stop stop-color="#7967E1"/>
<stop offset="1" stop-color="#1B9FD6"/>
</linearGradient>
<linearGradient id="paint1_linear_503_14" x1="0" y1="0" x2="25135" y2="6315" gradientUnits="userSpaceOnUse">
<stop stop-color="#7967E1"/>
<stop offset="1" stop-color="#1B9FD6"/>
</linearGradient>
<linearGradient id="paint2_linear_503_14" x1="0" y1="0" x2="25135" y2="6315" gradientUnits="userSpaceOnUse">
<stop stop-color="#7967E1"/>
<stop offset="1" stop-color="#1B9FD6"/>
</linearGradient>
<linearGradient id="paint3_linear_503_14" x1="0" y1="0" x2="25135" y2="6315" gradientUnits="userSpaceOnUse">
<stop stop-color="#7967E1"/>
<stop offset="1" stop-color="#1B9FD6"/>
</linearGradient>
<linearGradient id="paint4_linear_503_14" x1="0" y1="0" x2="25135" y2="6315" gradientUnits="userSpaceOnUse">
<stop stop-color="#7967E1"/>
<stop offset="1" stop-color="#1B9FD6"/>
</linearGradient>
<linearGradient id="paint5_linear_503_14" x1="0" y1="0" x2="25135" y2="6315" gradientUnits="userSpaceOnUse">
<stop stop-color="#7967E1"/>
<stop offset="1" stop-color="#1B9FD6"/>
</linearGradient>
<linearGradient id="paint6_linear_503_14" x1="0" y1="0" x2="25135" y2="6315" gradientUnits="userSpaceOnUse">
<stop stop-color="#7967E1"/>
<stop offset="1" stop-color="#1B9FD6"/>
</linearGradient>
<linearGradient id="paint7_linear_503_14" x1="0" y1="0" x2="25135" y2="6315" gradientUnits="userSpaceOnUse">
<stop stop-color="#7967E1"/>
<stop offset="1" stop-color="#1B9FD6"/>
</linearGradient>
<linearGradient id="paint8_linear_503_14" x1="0" y1="0" x2="25135" y2="6315" gradientUnits="userSpaceOnUse">
<stop stop-color="#7967E1"/>
<stop offset="1" stop-color="#1B9FD6"/>
</linearGradient>
<linearGradient id="paint9_linear_503_14" x1="0" y1="0" x2="25135" y2="6315" gradientUnits="userSpaceOnUse">
<stop stop-color="#7967E1"/>
<stop offset="1" stop-color="#1B9FD6"/>
</linearGradient>
<linearGradient id="paint10_linear_503_14" x1="0" y1="0" x2="25135" y2="6315" gradientUnits="userSpaceOnUse">
<stop stop-color="#7967E1"/>
<stop offset="1" stop-color="#1B9FD6"/>
</linearGradient>
<linearGradient id="paint11_linear_503_14" x1="0" y1="0" x2="25135" y2="6315" gradientUnits="userSpaceOnUse">
<stop stop-color="#7967E1"/>
<stop offset="1" stop-color="#1B9FD6"/>
</linearGradient>
<linearGradient id="paint12_linear_503_14" x1="0" y1="0" x2="25135" y2="6315" gradientUnits="userSpaceOnUse">
<stop stop-color="#7967E1"/>
<stop offset="1" stop-color="#1B9FD6"/>
</linearGradient>
<linearGradient id="paint13_linear_503_14" x1="0" y1="0" x2="25135" y2="6315" gradientUnits="userSpaceOnUse">
<stop stop-color="#7967E1"/>
<stop offset="1" stop-color="#1B9FD6"/>
</linearGradient>
<linearGradient id="paint14_linear_503_14" x1="0" y1="0" x2="25135" y2="6315" gradientUnits="userSpaceOnUse">
<stop stop-color="#7967E1"/>
<stop offset="1" stop-color="#1B9FD6"/>
</linearGradient>
<linearGradient id="paint15_linear_503_14" x1="0" y1="0" x2="25135" y2="6315" gradientUnits="userSpaceOnUse">
<stop stop-color="#7967E1"/>
<stop offset="1" stop-color="#1B9FD6"/>
</linearGradient>
<linearGradient id="paint16_linear_503_14" x1="0" y1="0" x2="25135" y2="6315" gradientUnits="userSpaceOnUse">
<stop stop-color="#7967E1"/>
<stop offset="1" stop-color="#1B9FD6"/>
</linearGradient>
<linearGradient id="paint17_linear_503_14" x1="0" y1="0" x2="25135" y2="6315" gradientUnits="userSpaceOnUse">
<stop stop-color="#7967E1"/>
<stop offset="1" stop-color="#1B9FD6"/>
</linearGradient>
</defs>
</svg>
